<svg width="1600" height="980" viewBox="0 0 1600 980" fill="none" xmlns="http://www.w3.org/2000/svg">
  <defs>
    <linearGradient id="bg" x1="0" y1="0" x2="1600" y2="980" gradientUnits="userSpaceOnUse">
      <stop stop-color="#F6F3ED"/>
      <stop offset="1" stop-color="#ECE8E0"/>
    </linearGradient>
    <filter id="shadow" x="4" y="12" width="1592" height="956" filterUnits="userSpaceOnUse" color-interpolation-filters="sRGB">
      <feDropShadow dx="0" dy="18" stdDeviation="18" flood-color="#352D20" flood-opacity="0.14"/>
    </filter>
  </defs>

  <rect width="1600" height="980" fill="url(#bg)"/>

  <g filter="url(#shadow)">
    <rect x="26" y="24" width="1548" height="912" rx="26" fill="#F2EFE9" stroke="#D4CEC2"/>
  </g>

  <circle cx="58" cy="52" r="8" fill="#FF5F57"/>
  <circle cx="81" cy="52" r="8" fill="#FEBC2E"/>
  <circle cx="104" cy="52" r="8" fill="#28C840"/>

  <g opacity="0.62">
    <path d="M82 188C75.925 188 71 183.075 71 177C71 170.925 75.925 166 82 166C88.075 166 93 170.925 93 177C93 183.075 88.075 188 82 188Z" stroke="#534B41" stroke-width="1.7"/>
    <path d="M82 171V177L86 180" stroke="#534B41" stroke-width="1.7" stroke-linecap="round" stroke-linejoin="round"/>
  </g>
  <g opacity="0.62">
    <path d="M82 258C85.866 258 89 254.866 89 251C89 247.134 85.866 244 82 244C78.134 244 75 247.134 75 251C75 254.866 78.134 258 82 258Z" stroke="#534B41" stroke-width="1.7"/>
    <path d="M95 251H92" stroke="#534B41" stroke-width="1.7" stroke-linecap="round"/>
    <path d="M72 251H69" stroke="#534B41" stroke-width="1.7" stroke-linecap="round"/>
  </g>

  <rect x="150" y="112" width="1392" height="790" rx="28" fill="#FFFDFC" stroke="#E5DED2"/>

  <text x="214" y="188" fill="#201C17" font-family="Avenir Next, SF Pro Display, Segoe UI, sans-serif" font-size="26" font-weight="600">History</text>

  <g>
    <rect x="1132" y="146" width="342" height="36" rx="14" fill="#FAF7F2" stroke="#E4DBCF"/>
    <circle cx="1155" cy="164" r="5" fill="#B8AEA0"/>
    <line x1="1159" y1="168" x2="1167" y2="176" stroke="#B8AEA0" stroke-width="1.6" stroke-linecap="round"/>
    <text x="1182" y="169" fill="#7A7267" font-family="Avenir Next, SF Pro Display, Segoe UI, sans-serif" font-size="12">Search transcripts</text>
  </g>

  <g>
    <rect x="214" y="232" width="1260" height="586" rx="18" fill="white" stroke="#E5DDD1"/>
    <text x="232" y="270" fill="#7C7468" font-family="Avenir Next, SF Pro Display, Segoe UI, sans-serif" font-size="12" font-weight="700" letter-spacing="2.8">TODAY</text>

    <line x1="214" y1="304" x2="1474" y2="304" stroke="#EEE6DA"/>
    <line x1="214" y1="392" x2="1474" y2="392" stroke="#EEE6DA"/>
    <line x1="214" y1="480" x2="1474" y2="480" stroke="#EEE6DA"/>
    <line x1="214" y1="568" x2="1474" y2="568" stroke="#EEE6DA"/>

    <text x="232" y="348" fill="#6B6358" font-family="Avenir Next, SF Pro Display, Segoe UI, sans-serif" font-size="12">01:01 PM</text>
    <text x="364" y="348" fill="#2A241E" font-family="Avenir Next, SF Pro Display, Segoe UI, sans-serif" font-size="15">Hey, can you make sure to fix everything we mentioned in the issue?</text>
    <g>
      <rect x="1398" y="327" width="52" height="28" rx="14" fill="#F1F8F4"/>
      <path d="M1413 341L1418 346L1430 334" stroke="#17704F" stroke-width="1.8" stroke-linecap="round" stroke-linejoin="round"/>
      <text x="1440" y="345" text-anchor="middle" fill="#17704F" font-family="Avenir Next, SF Pro Display, Segoe UI, sans-serif" font-size="12" font-weight="600">Copied</text>
    </g>

    <text x="232" y="436" fill="#6B6358" font-family="Avenir Next, SF Pro Display, Segoe UI, sans-serif" font-size="12">12:59 PM</text>
    <text x="364" y="436" fill="#2A241E" font-family="Avenir Next, SF Pro Display, Segoe UI, sans-serif" font-size="15">Hi, this is me trying to find out how good the model is. I am Taiwanese, so I was thinking most of the time when I speak Chinese…</text>
    <g opacity="0.64">
      <rect x="1416" y="418" width="24" height="24" rx="12" fill="#FBF8F3" stroke="#E5DDD1"/>
      <rect x="1423" y="424" width="8" height="8" rx="1.5" stroke="#6B6358" stroke-width="1.4"/>
      <path d="M1426 424V422.5C1426 420.567 1427.567 419 1429.5 419H1434C1435.933 419 1437.5 420.567 1437.5 422.5V427" stroke="#6B6358" stroke-width="1.4"/>
    </g>

    <text x="232" y="524" fill="#6B6358" font-family="Avenir Next, SF Pro Display, Segoe UI, sans-serif" font-size="12">12:54 PM</text>
    <text x="364" y="524" fill="#2A241E" font-family="Avenir Next, SF Pro Display, Segoe UI, sans-serif" font-size="15">Review the shortcuts flow and simplify the settings page.</text>
    <g opacity="0.64">
      <rect x="1416" y="506" width="24" height="24" rx="12" fill="#FBF8F3" stroke="#E5DDD1"/>
      <rect x="1423" y="512" width="8" height="8" rx="1.5" stroke="#6B6358" stroke-width="1.4"/>
      <path d="M1426 512V510.5C1426 508.567 1427.567 507 1429.5 507H1434C1435.933 507 1437.5 508.567 1437.5 510.5V515" stroke="#6B6358" stroke-width="1.4"/>
    </g>

    <text x="232" y="614" fill="#7C7468" font-family="Avenir Next, SF Pro Display, Segoe UI, sans-serif" font-size="12" font-weight="700" letter-spacing="2.8">YESTERDAY</text>

    <text x="232" y="694" fill="#6B6358" font-family="Avenir Next, SF Pro Display, Segoe UI, sans-serif" font-size="12">04:22 PM</text>
    <text x="364" y="694" fill="#2A241E" font-family="Avenir Next, SF Pro Display, Segoe UI, sans-serif" font-size="15">Accessibility checks are done. Paste now works back into Notes, Discord, and terminals.</text>
    <g opacity="0.64">
      <rect x="1416" y="676" width="24" height="24" rx="12" fill="#FBF8F3" stroke="#E5DDD1"/>
      <rect x="1423" y="682" width="8" height="8" rx="1.5" stroke="#6B6358" stroke-width="1.4"/>
      <path d="M1426 682V680.5C1426 678.567 1427.567 677 1429.5 677H1434C1435.933 677 1437.5 678.567 1437.5 680.5V685" stroke="#6B6358" stroke-width="1.4"/>
    </g>
  </g>

  <g>
    <rect x="1274" y="846" width="136" height="40" rx="20" fill="rgba(255,255,255,0.94)" stroke="#D8D0C4"/>
    <path d="M1294 865L1299 870L1311 858" stroke="#17704F" stroke-width="1.8" stroke-linecap="round" stroke-linejoin="round"/>
    <text x="1349" y="869" text-anchor="middle" fill="#2A241E" font-family="Avenir Next, SF Pro Display, Segoe UI, sans-serif" font-size="14" font-weight="600">Copied</text>
  </g>
</svg>
