<svg width="1600" height="980" viewBox="0 0 1600 980" fill="none" xmlns="http://www.w3.org/2000/svg">
  <defs>
    <linearGradient id="bg" x1="0" y1="0" x2="1600" y2="980" gradientUnits="userSpaceOnUse">
      <stop stop-color="#F6F3ED"/>
      <stop offset="1" stop-color="#ECE8E0"/>
    </linearGradient>
    <linearGradient id="shellGlow" x1="180" y1="70" x2="180" y2="920" gradientUnits="userSpaceOnUse">
      <stop stop-color="white" stop-opacity="0.7"/>
      <stop offset="1" stop-color="white" stop-opacity="0"/>
    </linearGradient>
    <filter id="shadow" x="4" y="12" width="1592" height="956" filterUnits="userSpaceOnUse" color-interpolation-filters="sRGB">
      <feDropShadow dx="0" dy="18" stdDeviation="18" flood-color="#352D20" flood-opacity="0.14"/>
    </filter>
  </defs>

  <rect width="1600" height="980" fill="url(#bg)"/>

  <g filter="url(#shadow)">
    <rect x="26" y="24" width="1548" height="912" rx="26" fill="#F2EFE9" stroke="#D4CEC2"/>
  </g>

  <circle cx="58" cy="52" r="8" fill="#FF5F57"/>
  <circle cx="81" cy="52" r="8" fill="#FEBC2E"/>
  <circle cx="104" cy="52" r="8" fill="#28C840"/>

  <rect x="36" y="76" width="112" height="840" rx="24" fill="url(#shellGlow)"/>

  <g opacity="0.92">
    <rect x="58" y="196" width="48" height="48" rx="12" fill="#E8E1D5" stroke="#D8CFBF"/>
    <path d="M82 208L90 214V232H74V214L82 208Z" stroke="#2B251E" stroke-width="1.7" stroke-linecap="round" stroke-linejoin="round"/>
  </g>
  <g opacity="0.62">
    <path d="M82 294C85.866 294 89 290.866 89 287V278C89 274.134 85.866 271 82 271C78.134 271 75 274.134 75 278V287C75 290.866 78.134 294 82 294Z" stroke="#534B41" stroke-width="1.7"/>
    <path d="M70 286C70 292.627 75.373 298 82 298C88.627 298 94 292.627 94 286" stroke="#534B41" stroke-width="1.7" stroke-linecap="round"/>
    <path d="M82 298V305" stroke="#534B41" stroke-width="1.7" stroke-linecap="round"/>
  </g>
  <g opacity="0.62">
    <path d="M82 364C75.925 364 71 359.075 71 353C71 346.925 75.925 342 82 342C88.075 342 93 346.925 93 353C93 359.075 88.075 364 82 364Z" stroke="#534B41" stroke-width="1.7"/>
    <path d="M82 347V353L86 356" stroke="#534B41" stroke-width="1.7" stroke-linecap="round" stroke-linejoin="round"/>
  </g>
  <g opacity="0.62">
    <path d="M82 414C85.866 414 89 410.866 89 407C89 403.134 85.866 400 82 400C78.134 400 75 403.134 75 407C75 410.866 78.134 414 82 414Z" stroke="#534B41" stroke-width="1.7"/>
    <path d="M95 407H92" stroke="#534B41" stroke-width="1.7" stroke-linecap="round"/>
    <path d="M72 407H69" stroke="#534B41" stroke-width="1.7" stroke-linecap="round"/>
    <path d="M82 394V391" stroke="#534B41" stroke-width="1.7" stroke-linecap="round"/>
    <path d="M82 423V420" stroke="#534B41" stroke-width="1.7" stroke-linecap="round"/>
  </g>

  <rect x="150" y="112" width="1392" height="790" rx="28" fill="#FFFDFC" stroke="#E5DED2"/>

  <text x="214" y="188" fill="#201C17" font-family="Avenir Next, SF Pro Display, Segoe UI, sans-serif" font-size="26" font-weight="600">Home</text>

  <g>
    <rect x="1050" y="146" width="94" height="32" rx="14" fill="#FAF7F2" stroke="#E4DBCF"/>
    <text x="1066" y="167" fill="#70675D" font-family="Avenir Next, SF Pro Display, Segoe UI, sans-serif" font-size="11">Hold</text>
    <rect x="1104" y="150" width="38" height="24" rx="10" fill="white" stroke="#D9D0C4"/>
    <text x="1117" y="166" text-anchor="middle" fill="#2B251E" font-family="Avenir Next, SF Pro Display, Segoe UI, sans-serif" font-size="11" font-weight="600">Cmd</text>
    <rect x="1148" y="150" width="52" height="24" rx="10" fill="white" stroke="#D9D0C4"/>
    <text x="1174" y="166" text-anchor="middle" fill="#2B251E" font-family="Avenir Next, SF Pro Display, Segoe UI, sans-serif" font-size="11" font-weight="600">Shift</text>
    <rect x="1206" y="150" width="30" height="24" rx="10" fill="white" stroke="#D9D0C4"/>
    <text x="1221" y="166" text-anchor="middle" fill="#2B251E" font-family="Avenir Next, SF Pro Display, Segoe UI, sans-serif" font-size="11" font-weight="600">1</text>
  </g>

  <g>
    <rect x="1246" y="146" width="112" height="32" rx="14" fill="#FAF7F2" stroke="#E4DBCF"/>
    <text x="1264" y="167" fill="#70675D" font-family="Avenir Next, SF Pro Display, Segoe UI, sans-serif" font-size="11">Toggle</text>
    <rect x="1311" y="150" width="38" height="24" rx="10" fill="white" stroke="#D9D0C4"/>
    <text x="1330" y="166" text-anchor="middle" fill="#2B251E" font-family="Avenir Next, SF Pro Display, Segoe UI, sans-serif" font-size="11" font-weight="600">Cmd</text>
    <rect x="1355" y="150" width="52" height="24" rx="10" fill="white" stroke="#D9D0C4"/>
    <text x="1381" y="166" text-anchor="middle" fill="#2B251E" font-family="Avenir Next, SF Pro Display, Segoe UI, sans-serif" font-size="11" font-weight="600">Shift</text>
    <rect x="1413" y="150" width="30" height="24" rx="10" fill="white" stroke="#D9D0C4"/>
    <text x="1428" y="166" text-anchor="middle" fill="#2B251E" font-family="Avenir Next, SF Pro Display, Segoe UI, sans-serif" font-size="11" font-weight="600">2</text>
  </g>

  <g>
    <rect x="1050" y="192" width="424" height="62" rx="14" fill="#F7F3ED" stroke="#E4DBCF"/>
    <circle cx="1070" cy="223" r="6" fill="#7C998C"/>
    <text x="1085" y="215" fill="#6B7F75" font-family="Avenir Next, SF Pro Display, Segoe UI, sans-serif" font-size="11" font-weight="700" letter-spacing="1.8">READY</text>
    <text x="1085" y="236" fill="#756D63" font-family="Avenir Next, SF Pro Display, Segoe UI, sans-serif" font-size="12">Inserted text into Notes. 4941ms</text>
  </g>

  <line x1="214" y1="275" x2="1474" y2="275" stroke="#EEE6DA"/>

  <text x="214" y="316" fill="#7C7468" font-family="Avenir Next, SF Pro Display, Segoe UI, sans-serif" font-size="12" font-weight="700" letter-spacing="2.8">OVERVIEW</text>
  <text x="214" y="352" fill="#201C17" font-family="Avenir Next, SF Pro Display, Segoe UI, sans-serif" font-size="22" font-weight="600">Ready to dictate</text>
  <text x="214" y="388" fill="#72695E" font-family="Avenir Next, SF Pro Display, Segoe UI, sans-serif" font-size="13">Fast Mode OFF</text>

  <g>
    <rect x="1188" y="316" width="134" height="40" rx="12" fill="#2E2923"/>
    <text x="1255" y="341" text-anchor="middle" fill="white" font-family="Avenir Next, SF Pro Display, Segoe UI, sans-serif" font-size="14" font-weight="600">Start recording</text>
    <rect x="1334" y="316" width="138" height="40" rx="12" fill="#F9F6F1" stroke="#E4DBCF"/>
    <text x="1403" y="341" text-anchor="middle" fill="#2B251E" font-family="Avenir Next, SF Pro Display, Segoe UI, sans-serif" font-size="14">Turn Fast Mode On</text>
  </g>

  <g>
    <rect x="214" y="418" width="176" height="66" rx="28" fill="#FBF8F3" stroke="#E5DDD1"/>
    <text x="232" y="442" fill="#8A8176" font-family="Avenir Next, SF Pro Display, Segoe UI, sans-serif" font-size="11" font-weight="700" letter-spacing="2">ACTIVE DAYS</text>
    <text x="232" y="467" fill="#201C17" font-family="Avenir Next, SF Pro Display, Segoe UI, sans-serif" font-size="26" font-weight="600">2</text>
  </g>
  <g>
    <rect x="398" y="418" width="176" height="66" rx="28" fill="#FBF8F3" stroke="#E5DDD1"/>
    <text x="416" y="442" fill="#8A8176" font-family="Avenir Next, SF Pro Display, Segoe UI, sans-serif" font-size="11" font-weight="700" letter-spacing="2">WORDS CAPTURED</text>
    <text x="416" y="467" fill="#201C17" font-family="Avenir Next, SF Pro Display, Segoe UI, sans-serif" font-size="26" font-weight="600">588</text>
  </g>
  <g>
    <rect x="582" y="418" width="222" height="66" rx="28" fill="#FBF8F3" stroke="#E5DDD1"/>
    <text x="600" y="442" fill="#8A8176" font-family="Avenir Next, SF Pro Display, Segoe UI, sans-serif" font-size="11" font-weight="700" letter-spacing="2">EST. TYPING TIME SAVED</text>
    <text x="600" y="467" fill="#201C17" font-family="Avenir Next, SF Pro Display, Segoe UI, sans-serif" font-size="26" font-weight="600">10m</text>
  </g>

  <text x="214" y="522" fill="#7C7468" font-family="Avenir Next, SF Pro Display, Segoe UI, sans-serif" font-size="12" font-weight="700" letter-spacing="2.8">RECENT</text>

  <g>
    <rect x="214" y="542" width="1260" height="190" rx="18" fill="white" stroke="#E5DDD1"/>
    <line x1="214" y1="598" x2="1474" y2="598" stroke="#EEE6DA"/>
    <line x1="214" y1="662" x2="1474" y2="662" stroke="#EEE6DA"/>

    <text x="232" y="572" fill="#6B6358" font-family="Avenir Next, SF Pro Display, Segoe UI, sans-serif" font-size="12">01:01 PM</text>
    <text x="356" y="573" fill="#2A241E" font-family="Avenir Next, SF Pro Display, Segoe UI, sans-serif" font-size="14">Hey, can you make sure to fix everything we mentioned in the issue?</text>
    <text x="1442" y="573" text-anchor="end" fill="#675E54" font-family="Avenir Next, SF Pro Display, Segoe UI, sans-serif" font-size="13">Copy</text>

    <text x="232" y="627" fill="#6B6358" font-family="Avenir Next, SF Pro Display, Segoe UI, sans-serif" font-size="12">12:59 PM</text>
    <text x="356" y="627" fill="#2A241E" font-family="Avenir Next, SF Pro Display, Segoe UI, sans-serif" font-size="14">Hi, this is me trying to find out how good the model is. I am Taiwanese, so I was thinking most of the time when I speak Chinese…</text>
    <text x="1442" y="627" text-anchor="end" fill="#675E54" font-family="Avenir Next, SF Pro Display, Segoe UI, sans-serif" font-size="13">Copy</text>

    <text x="232" y="690" fill="#6B6358" font-family="Avenir Next, SF Pro Display, Segoe UI, sans-serif" font-size="12">12:54 PM</text>
    <text x="356" y="690" fill="#2A241E" font-family="Avenir Next, SF Pro Display, Segoe UI, sans-serif" font-size="14">Review the shortcuts flow and simplify the settings page.</text>
    <text x="1442" y="690" text-anchor="end" fill="#675E54" font-family="Avenir Next, SF Pro Display, Segoe UI, sans-serif" font-size="13">Copy</text>
  </g>
</svg>
